<mxfile host="app.diagrams.net" agent="Mozilla/5.0 (Windows NT 10.0; Win64; x64) AppleWebKit/537.36 (KHTML, like Gecko) Chrome/129.0.0.0 Safari/537.36" version="24.8.0">
  <diagram name="Сторінка-1" id="9zQdCi0HO2TrPJIhToj-">
    <mxGraphModel grid="1" page="1" gridSize="10" guides="1" tooltips="1" connect="1" arrows="1" fold="1" pageScale="1" pageWidth="827" pageHeight="1169" math="0" shadow="0">
      <root>
        <mxCell id="0" />
        <mxCell id="1" parent="0" />
        <mxCell id="OIjA5KQu5khFZ8fDXylX-2" style="edgeStyle=orthogonalEdgeStyle;rounded=0;orthogonalLoop=1;jettySize=auto;html=1;" edge="1" parent="1" source="OIjA5KQu5khFZ8fDXylX-1" target="OIjA5KQu5khFZ8fDXylX-5">
          <mxGeometry relative="1" as="geometry">
            <mxPoint x="410" y="490" as="targetPoint" />
          </mxGeometry>
        </mxCell>
        <mxCell id="OIjA5KQu5khFZ8fDXylX-1" value="Start" style="ellipse;whiteSpace=wrap;html=1;fillColor=#d5e8d4;strokeColor=#82b366;" vertex="1" parent="1">
          <mxGeometry x="350" y="340" width="120" height="80" as="geometry" />
        </mxCell>
        <mxCell id="OIjA5KQu5khFZ8fDXylX-9" style="edgeStyle=orthogonalEdgeStyle;rounded=0;orthogonalLoop=1;jettySize=auto;html=1;entryX=0.5;entryY=0;entryDx=0;entryDy=0;" edge="1" parent="1" source="OIjA5KQu5khFZ8fDXylX-5" target="OIjA5KQu5khFZ8fDXylX-8">
          <mxGeometry relative="1" as="geometry" />
        </mxCell>
        <mxCell id="OIjA5KQu5khFZ8fDXylX-5" value="float a_f = 100.0f, b_f = 0.001f;" style="rounded=0;whiteSpace=wrap;html=1;" vertex="1" parent="1">
          <mxGeometry x="350" y="510" width="120" height="60" as="geometry" />
        </mxCell>
        <mxCell id="OIjA5KQu5khFZ8fDXylX-10" style="edgeStyle=orthogonalEdgeStyle;rounded=0;orthogonalLoop=1;jettySize=auto;html=1;" edge="1" parent="1" source="OIjA5KQu5khFZ8fDXylX-8" target="OIjA5KQu5khFZ8fDXylX-11">
          <mxGeometry relative="1" as="geometry">
            <mxPoint x="410" y="730" as="targetPoint" />
          </mxGeometry>
        </mxCell>
        <mxCell id="OIjA5KQu5khFZ8fDXylX-8" value="float ab_s = (a_f+b_f)^4 - (a_f^4 + 4 * a_f^3 * b_f)" style="rounded=0;whiteSpace=wrap;html=1;" vertex="1" parent="1">
          <mxGeometry x="340" y="620" width="140" height="60" as="geometry" />
        </mxCell>
        <mxCell id="OIjA5KQu5khFZ8fDXylX-13" style="edgeStyle=orthogonalEdgeStyle;rounded=0;orthogonalLoop=1;jettySize=auto;html=1;" edge="1" parent="1" source="OIjA5KQu5khFZ8fDXylX-11" target="OIjA5KQu5khFZ8fDXylX-12">
          <mxGeometry relative="1" as="geometry" />
        </mxCell>
        <mxCell id="OIjA5KQu5khFZ8fDXylX-11" value="float ab_th = ( 6 * a_f^2 * b_f^2) + ( 4 * a_f * b_f^3) + b_f^4" style="rounded=0;whiteSpace=wrap;html=1;" vertex="1" parent="1">
          <mxGeometry x="320" y="720" width="180" height="60" as="geometry" />
        </mxCell>
        <mxCell id="OIjA5KQu5khFZ8fDXylX-14" style="edgeStyle=orthogonalEdgeStyle;rounded=0;orthogonalLoop=1;jettySize=auto;html=1;" edge="1" parent="1" source="OIjA5KQu5khFZ8fDXylX-12" target="OIjA5KQu5khFZ8fDXylX-15">
          <mxGeometry relative="1" as="geometry">
            <mxPoint x="410" y="950" as="targetPoint" />
          </mxGeometry>
        </mxCell>
        <mxCell id="OIjA5KQu5khFZ8fDXylX-12" value="float resultf = ab_s / ab_th" style="rounded=0;whiteSpace=wrap;html=1;" vertex="1" parent="1">
          <mxGeometry x="325" y="830" width="170" height="60" as="geometry" />
        </mxCell>
        <mxCell id="OIjA5KQu5khFZ8fDXylX-16" style="edgeStyle=orthogonalEdgeStyle;rounded=0;orthogonalLoop=1;jettySize=auto;html=1;" edge="1" parent="1" source="OIjA5KQu5khFZ8fDXylX-15" target="OIjA5KQu5khFZ8fDXylX-17">
          <mxGeometry relative="1" as="geometry">
            <mxPoint x="650" y="540" as="targetPoint" />
            <Array as="points">
              <mxPoint x="580" y="960" />
              <mxPoint x="580" y="540" />
            </Array>
          </mxGeometry>
        </mxCell>
        <mxCell id="OIjA5KQu5khFZ8fDXylX-15" value="resultf" style="shape=parallelogram;perimeter=parallelogramPerimeter;whiteSpace=wrap;html=1;fixedSize=1;" vertex="1" parent="1">
          <mxGeometry x="350" y="930" width="120" height="60" as="geometry" />
        </mxCell>
        <mxCell id="OIjA5KQu5khFZ8fDXylX-18" style="edgeStyle=orthogonalEdgeStyle;rounded=0;orthogonalLoop=1;jettySize=auto;html=1;" edge="1" parent="1" source="OIjA5KQu5khFZ8fDXylX-17" target="OIjA5KQu5khFZ8fDXylX-19">
          <mxGeometry relative="1" as="geometry">
            <mxPoint x="700" y="620" as="targetPoint" />
          </mxGeometry>
        </mxCell>
        <mxCell id="OIjA5KQu5khFZ8fDXylX-17" value="double a_d = 100, b_d = 0.001" style="rounded=0;whiteSpace=wrap;html=1;" vertex="1" parent="1">
          <mxGeometry x="640" y="510" width="120" height="60" as="geometry" />
        </mxCell>
        <mxCell id="OIjA5KQu5khFZ8fDXylX-20" style="edgeStyle=orthogonalEdgeStyle;rounded=0;orthogonalLoop=1;jettySize=auto;html=1;" edge="1" parent="1" source="OIjA5KQu5khFZ8fDXylX-19" target="OIjA5KQu5khFZ8fDXylX-21">
          <mxGeometry relative="1" as="geometry">
            <mxPoint x="705" y="720" as="targetPoint" />
          </mxGeometry>
        </mxCell>
        <mxCell id="OIjA5KQu5khFZ8fDXylX-19" value="double ad_sd = (a_d + b_d)^4 - (a_d^4 + 4* a_d^3*b_d)" style="rounded=0;whiteSpace=wrap;html=1;" vertex="1" parent="1">
          <mxGeometry x="615" y="600" width="170" height="60" as="geometry" />
        </mxCell>
        <mxCell id="OIjA5KQu5khFZ8fDXylX-23" style="edgeStyle=orthogonalEdgeStyle;rounded=0;orthogonalLoop=1;jettySize=auto;html=1;" edge="1" parent="1" source="OIjA5KQu5khFZ8fDXylX-21" target="OIjA5KQu5khFZ8fDXylX-24">
          <mxGeometry relative="1" as="geometry">
            <mxPoint x="700" y="840" as="targetPoint" />
          </mxGeometry>
        </mxCell>
        <mxCell id="OIjA5KQu5khFZ8fDXylX-21" value="double ab_thd = ( 6 * a_d^2 * b_d^2) + ( 4 * a_d * b_d^3) + b_d^4" style="rounded=0;whiteSpace=wrap;html=1;" vertex="1" parent="1">
          <mxGeometry x="615" y="690" width="170" height="60" as="geometry" />
        </mxCell>
        <mxCell id="OIjA5KQu5khFZ8fDXylX-25" style="edgeStyle=orthogonalEdgeStyle;rounded=0;orthogonalLoop=1;jettySize=auto;html=1;" edge="1" parent="1" source="OIjA5KQu5khFZ8fDXylX-24" target="OIjA5KQu5khFZ8fDXylX-26">
          <mxGeometry relative="1" as="geometry">
            <mxPoint x="700" y="920" as="targetPoint" />
          </mxGeometry>
        </mxCell>
        <mxCell id="OIjA5KQu5khFZ8fDXylX-24" value="double resultd = ab_sd / ab_thd" style="rounded=0;whiteSpace=wrap;html=1;" vertex="1" parent="1">
          <mxGeometry x="625" y="810" width="150" height="60" as="geometry" />
        </mxCell>
        <mxCell id="OIjA5KQu5khFZ8fDXylX-27" style="edgeStyle=orthogonalEdgeStyle;rounded=0;orthogonalLoop=1;jettySize=auto;html=1;" edge="1" parent="1" source="OIjA5KQu5khFZ8fDXylX-26" target="OIjA5KQu5khFZ8fDXylX-28">
          <mxGeometry relative="1" as="geometry">
            <mxPoint x="700" y="1030" as="targetPoint" />
          </mxGeometry>
        </mxCell>
        <mxCell id="OIjA5KQu5khFZ8fDXylX-26" value="resultd" style="shape=parallelogram;perimeter=parallelogramPerimeter;whiteSpace=wrap;html=1;fixedSize=1;" vertex="1" parent="1">
          <mxGeometry x="640" y="900" width="120" height="60" as="geometry" />
        </mxCell>
        <mxCell id="OIjA5KQu5khFZ8fDXylX-28" value="End" style="ellipse;whiteSpace=wrap;html=1;fillColor=#f8cecc;strokeColor=#b85450;" vertex="1" parent="1">
          <mxGeometry x="640" y="1000" width="120" height="80" as="geometry" />
        </mxCell>
      </root>
    </mxGraphModel>
  </diagram>
</mxfile>
